<?xml version="1.0" encoding="iso-8859-1"?>
<!-- Generator: Adobe Illustrator 19.0.0, SVG Export Plug-In . SVG Version: 6.00 Build 0)  -->
<svg version="1.1" id="Capa_1" xmlns="http://www.w3.org/2000/svg" xmlns:xlink="http://www.w3.org/1999/xlink" x="0px" y="0px"
	 viewBox="0 0 480.012 480.012" style="enable-background:new 0 0 480.012 480.012;" xml:space="preserve">
<g>
	<path style="fill:#F9F1ED;" d="M152.558,300.214L152.558,300.214L152.558,300.214z"/>
	<path style="fill:#F9F1ED;" d="M143.638,289.918c0.064,0.096,0.12,0.2,0.184,0.296
		C143.758,290.118,143.702,290.014,143.638,289.918z"/>
	<path style="fill:#F9F1ED;" d="M336.374,289.918c-0.064,0.096-0.12,0.2-0.184,0.296
		C336.254,290.118,336.31,290.014,336.374,289.918z"/>
	<path style="fill:#F9F1ED;" d="M339.702,283.798c-0.16,0.344-0.328,0.68-0.496,1.024
		C339.374,284.486,339.542,284.15,339.702,283.798z"/>
	<path style="fill:#F9F1ED;" d="M140.31,283.798c0.16,0.344,0.328,0.68,0.496,1.024C140.638,284.486,140.47,284.15,140.31,283.798z"
		/>
	<path style="fill:#F9F1ED;" d="M147.966,295.638c-0.072-0.08-0.152-0.16-0.224-0.248
		C147.814,295.478,147.894,295.558,147.966,295.638z"/>
	<path style="fill:#F9F1ED;" d="M136.47,270.35c0.072,0.536,0.152,1.056,0.24,1.584C136.63,271.406,136.542,270.878,136.47,270.35z"
		/>
	<path style="fill:#F9F1ED;" d="M332.27,295.39c-0.072,0.08-0.152,0.16-0.224,0.24C332.118,295.558,332.198,295.478,332.27,295.39z"
		/>
	<path style="fill:#F9F1ED;" d="M327.454,300.214L327.454,300.214L327.454,300.214z"/>
	<path style="fill:#F9F1ED;" d="M137.95,277.454c0.048,0.176,0.08,0.352,0.136,0.528C138.038,277.806,138.006,277.63,137.95,277.454
		z"/>
	<path style="fill:#F9F1ED;" d="M343.542,270.35c-0.072,0.528-0.152,1.056-0.24,1.584
		C343.382,271.406,343.47,270.878,343.542,270.35z"/>
	<path style="fill:#F9F1ED;" d="M342.062,277.454c-0.048,0.176-0.08,0.352-0.136,0.528
		C341.974,277.806,342.006,277.63,342.062,277.454z"/>
	<path style="fill:#F9F1ED;" d="M323.374,69.99c0.208-0.28,0.424-0.56,0.632-0.84C323.798,69.43,323.582,69.71,323.374,69.99z"/>
	<path style="fill:#F9F1ED;" d="M336.942,45.47c0.024-0.056,0.04-0.12,0.064-0.176C336.982,45.35,336.958,45.406,336.942,45.47z"/>
	<path style="fill:#F9F1ED;" d="M156.006,69.15c0.208,0.288,0.416,0.56,0.632,0.84C156.43,69.71,156.214,69.43,156.006,69.15z"/>
	<path style="fill:#F9F1ED;" d="M143.006,45.294c0.024,0.056,0.04,0.12,0.064,0.176C143.054,45.406,143.03,45.35,143.006,45.294z"/>
</g>
<g>
	<circle style="fill:#E05346;" cx="240.01" cy="240.01" r="40"/>
	<path style="fill:#E05346;" d="M327.454,300.214c1.632-1.416,3.16-2.952,4.592-4.576c0.072-0.08,0.152-0.16,0.224-0.24
		c1.416-1.632,2.728-3.36,3.92-5.184c0.064-0.096,0.12-0.2,0.184-0.296c1.048-1.624,1.984-3.336,2.832-5.088
		c0.168-0.344,0.336-0.68,0.496-1.024c0.856-1.88,1.616-3.816,2.224-5.816c0.056-0.176,0.088-0.352,0.136-0.528
		c0.528-1.792,0.92-3.648,1.24-5.52c0.088-0.528,0.168-1.056,0.24-1.584c0.272-2.088,0.464-4.2,0.464-6.352v-64h-32v64
		c0,8.84-7.16,16-16,16h-56h-56c-8.84,0-16-7.16-16-16v-64h-32v64c0,2.152,0.192,4.264,0.464,6.344
		c0.072,0.528,0.152,1.056,0.24,1.584c0.312,1.88,0.712,3.728,1.24,5.52c0.048,0.176,0.08,0.352,0.136,0.528
		c0.608,2,1.368,3.936,2.224,5.816c0.16,0.344,0.328,0.68,0.496,1.024c0.848,1.752,1.784,3.464,2.832,5.088
		c0.064,0.096,0.12,0.2,0.184,0.296c1.192,1.816,2.504,3.544,3.92,5.176c0.072,0.08,0.152,0.16,0.224,0.248
		c1.432,1.624,2.952,3.152,4.592,4.576l0.008,0.008c3.376,2.928,7.168,5.392,11.272,7.296c6.136,2.856,12.952,4.496,20.168,4.496h16
		v56l-24,104h40l24-96l24,96h40l-24-104v-56h16c7.216,0,14.032-1.64,20.176-4.488C320.278,305.614,324.07,303.142,327.454,300.214
		L327.454,300.214z"/>
</g>
<g>
	<circle style="fill:#6ACCEF;" cx="408.01" cy="272.01" r="32"/>
	<path style="fill:#6ACCEF;" d="M400.006,304.006h-40c-8.84,0-16-7.16-16-16v-24c0,2.152-0.192,4.264-0.464,6.344
		c-0.072,0.536-0.152,1.056-0.24,1.584c-0.312,1.88-0.712,3.72-1.24,5.52c-0.048,0.176-0.08,0.352-0.136,0.528
		c-0.608,2-1.368,3.936-2.224,5.816c-0.16,0.344-0.328,0.68-0.496,1.024c-0.848,1.76-1.784,3.464-2.832,5.088
		c-0.064,0.096-0.12,0.2-0.184,0.296c-1.192,1.816-2.504,3.544-3.92,5.184c-0.072,0.08-0.152,0.16-0.224,0.24
		c-1.432,1.624-2.96,3.152-4.592,4.576c0,0,0,0-0.008,0.008c-3.376,2.936-7.168,5.392-11.272,7.296l0,0
		c7.48,16.784,24.28,28.496,43.832,28.496h16v56l-16,80h32l14.768-66.464l1.232-5.536l24-8l0,0v-56
		C432.006,318.334,417.678,304.006,400.006,304.006z"/>
</g>
<g>
	<path style="fill:#F9F1ED;" d="M332.046,295.638c-1.432,1.624-2.96,3.16-4.592,4.576
		C329.086,298.79,330.622,297.262,332.046,295.638z"/>
	<path style="fill:#F9F1ED;" d="M336.19,290.214c-1.192,1.816-2.504,3.544-3.92,5.184
		C333.686,293.758,334.998,292.03,336.19,290.214z"/>
	<path style="fill:#F9F1ED;" d="M316.182,307.518c4.104-1.904,7.896-4.368,11.272-7.296
		C324.07,303.142,320.278,305.614,316.182,307.518z"/>
	<path style="fill:#F9F1ED;" d="M343.294,271.934c-0.312,1.88-0.712,3.728-1.24,5.52
		C342.582,275.654,342.982,273.814,343.294,271.934z"/>
	<path style="fill:#F9F1ED;" d="M344.006,264.006c0,2.152-0.192,4.264-0.464,6.344C343.814,268.27,344.006,266.158,344.006,264.006z
		"/>
	<path style="fill:#F9F1ED;" d="M341.926,277.982c-0.608,2-1.368,3.936-2.224,5.816C340.55,281.918,341.318,279.982,341.926,277.982
		z"/>
	<path style="fill:#F9F1ED;" d="M339.206,284.822c-0.848,1.752-1.784,3.464-2.832,5.088
		C337.422,288.286,338.358,286.582,339.206,284.822z"/>
</g>
<polygon style="fill:#5DB2D1;" points="432.006,392.006 408.006,400.006 406.774,405.542 440.006,472.006 472.006,472.006 "/>
<g>
	<polygon style="fill:#6ACCEF;" points="406.774,405.542 406.774,405.542 408.006,400.006 	"/>
	<circle style="fill:#6ACCEF;" cx="72.01" cy="272.01" r="32"/>
	<path style="fill:#6ACCEF;" d="M152.558,300.214c-1.632-1.416-3.16-2.944-4.592-4.576c-0.072-0.08-0.152-0.16-0.224-0.248
		c-1.416-1.64-2.736-3.36-3.92-5.176c-0.064-0.096-0.12-0.2-0.184-0.296c-1.048-1.632-1.984-3.336-2.832-5.088
		c-0.168-0.344-0.336-0.68-0.496-1.024c-0.856-1.88-1.616-3.816-2.224-5.816c-0.056-0.176-0.088-0.352-0.136-0.528
		c-0.52-1.8-0.928-3.64-1.24-5.52c-0.088-0.528-0.168-1.056-0.24-1.584c-0.272-2.088-0.464-4.2-0.464-6.352v24c0,8.84-7.16,16-16,16
		h-40c-17.672,0-32,14.328-32,32v56l0,0l24,8l1.232,5.536l0,0l14.768,66.464h32l-16-80v-56h16c19.552,0,36.352-11.712,43.832-28.488
		l0,0C159.726,305.606,155.942,303.15,152.558,300.214L152.558,300.214z"/>
</g>
<g>
	<path style="fill:#F9F1ED;" d="M140.806,284.822c0.848,1.76,1.784,3.464,2.832,5.088
		C142.59,288.286,141.654,286.582,140.806,284.822z"/>
	<path style="fill:#F9F1ED;" d="M143.822,290.214c1.192,1.816,2.504,3.544,3.92,5.176
		C146.326,293.758,145.014,292.03,143.822,290.214z"/>
	<path style="fill:#F9F1ED;" d="M152.558,300.214c-1.632-1.416-3.16-2.952-4.592-4.576
		C149.39,297.262,150.926,298.79,152.558,300.214z"/>
	<path style="fill:#F9F1ED;" d="M163.83,307.518c-4.104-1.904-7.896-4.368-11.272-7.296
		C155.942,303.15,159.726,305.606,163.83,307.518z"/>
	<path style="fill:#F9F1ED;" d="M136.006,264.006c0,2.152,0.192,4.264,0.464,6.344C136.198,268.27,136.006,266.158,136.006,264.006z
		"/>
	<path style="fill:#F9F1ED;" d="M136.718,271.934c0.312,1.88,0.712,3.72,1.24,5.52C137.43,275.662,137.03,273.814,136.718,271.934z"
		/>
	<path style="fill:#F9F1ED;" d="M138.086,277.982c0.608,2,1.368,3.936,2.224,5.816C139.454,281.918,138.694,279.982,138.086,277.982
		z"/>
</g>
<polygon style="fill:#5DB2D1;" points="48.006,392.006 48.006,392.006 8.006,472.006 40.006,472.006 73.238,405.542 72.006,400.006 
	"/>
<polygon style="fill:#6ACCEF;" points="72.006,400.006 73.238,405.542 73.238,405.542 "/>
<g>
	<path style="fill:#FCAC37;" d="M136.006,8.006c0,8.272,1.072,16.288,2.896,24c1.08,4.552,2.456,8.984,4.112,13.288
		c0.024,0.056,0.04,0.12,0.064,0.176c3.28,8.496,7.656,16.432,12.936,23.68c0.208,0.28,0.424,0.56,0.632,0.84
		c2.608,3.504,5.408,6.864,8.432,10.016c18.92,19.688,45.472,32,74.936,32c29.464,0,56.016-12.312,74.936-32
		c3.024-3.144,5.824-6.504,8.432-10.016c0.208-0.28,0.424-0.56,0.632-0.84c5.28-7.248,9.656-15.184,12.936-23.68
		c0.024-0.056,0.04-0.12,0.064-0.176c1.64-4.296,3.016-8.728,4.096-13.288c1.824-7.712,2.896-15.728,2.896-24
		C344.006,8.006,136.006,8.006,136.006,8.006z"/>
	<path style="fill:#FCAC37;" d="M312.006,200.006c0-17.672-14.328-32-32-32h-40h-40c-17.672,0-32,14.328-32,32h72H312.006z"/>
</g>
<g>
	<path style="fill:#F9F1ED;" d="M138.902,32.006c1.08,4.552,2.456,8.984,4.112,13.288C141.358,40.998,139.982,36.566,138.902,32.006
		z"/>
	<path style="fill:#F9F1ED;" d="M165.07,80.006c-3.024-3.144-5.824-6.504-8.432-10.016C159.246,73.502,162.038,76.854,165.07,80.006
		z"/>
	<path style="fill:#F9F1ED;" d="M143.07,45.47c3.288,8.496,7.648,16.432,12.936,23.68C150.726,61.902,146.35,53.966,143.07,45.47z"
		/>
	<path style="fill:#F9F1ED;" d="M324.006,69.15c5.288-7.248,9.648-15.184,12.936-23.68C333.662,53.966,329.286,61.902,324.006,69.15
		z"/>
	<path style="fill:#F9F1ED;" d="M341.11,32.006c-1.08,4.552-2.456,8.984-4.112,13.288C338.654,40.99,340.03,36.566,341.11,32.006z"
		/>
	<path style="fill:#F9F1ED;" d="M314.942,80.006c3.024-3.144,5.816-6.504,8.432-10.016
		C320.766,73.494,317.966,76.854,314.942,80.006z"/>
</g>
<g>
	<path style="fill:#31324D;" d="M8.006,480.006h32c3.032,0,5.8-1.712,7.16-4.424l23.152-46.296l9.88,44.456
		c0.816,3.656,4.056,6.264,7.808,6.264h32c2.4,0,4.664-1.072,6.184-2.928c1.512-1.848,2.128-4.288,1.656-6.64l-15.84-79.224v-47.208
		h8c19.496,0,37.4-10.2,47.512-26.48c5.216,1.608,10.752,2.48,16.488,2.48h8v47.088l-23.8,103.112
		c-0.544,2.376,0.016,4.872,1.536,6.784c1.52,1.904,3.824,3.016,6.264,3.016h40c3.672,0,6.864-2.496,7.76-6.056l16.24-64.96
		l16.24,64.96c0.896,3.56,4.088,6.056,7.76,6.056h40c2.44,0,4.744-1.112,6.256-3.016c1.52-1.904,2.088-4.4,1.536-6.784
		l-23.792-103.112v-47.088h8c5.736,0,11.272-0.872,16.488-2.48c10.112,16.28,28.016,26.48,47.512,26.48h8v47.208l-15.84,79.224
		c-0.472,2.352,0.144,4.792,1.656,6.64c1.52,1.856,3.784,2.928,6.184,2.928h32c3.752,0,6.992-2.608,7.816-6.264l9.88-44.456
		l23.152,46.296c1.352,2.712,4.12,4.424,7.152,4.424h32c2.776,0,5.344-1.44,6.808-3.792c1.464-2.36,1.592-5.304,0.352-7.784
		l-39.16-78.312v-54.112c0-11.52-4.968-21.832-12.784-29.136c12.328-6.824,20.784-19.808,20.784-34.864c0-22.056-17.944-40-40-40
		s-40,17.944-40,40c0,9.04,3.128,17.296,8.208,24h-16.208c-4.416,0-8-3.592-8-8v-24v-64c0-4.416-3.576-8-8-8h-24.808
		c-3.72-18.232-19.872-32-39.192-32h-32v-40.408c27.248-1.936,51.824-13.584,70.232-31.592h9.768c30.872,0,56-25.12,56-56
		c0-4.416-3.576-8-8-8h-25.28c0.76-5.24,1.28-10.552,1.28-16c0-4.416-3.576-8-8-8h-208c-4.424,0-8,3.584-8,8
		c0,5.448,0.52,10.76,1.28,16h-25.28c-4.424,0-8,3.584-8,8c0,30.88,25.128,56,56,56h9.768
		c18.416,18.008,42.992,29.656,70.232,31.592v40.408h-32c-19.312,0-35.472,13.768-39.192,32h-24.808c-4.424,0-8,3.584-8,8v64v24
		c0,4.408-3.584,8-8,8h-16.208c5.08-6.704,8.208-14.96,8.208-24c0-22.056-17.944-40-40-40s-40,17.944-40,40
		c0,15.056,8.456,28.04,20.784,34.864c-7.816,7.304-12.784,17.616-12.784,29.136v54.112L0.846,468.43
		c-1.24,2.48-1.112,5.424,0.352,7.784C2.662,478.566,5.23,480.006,8.006,480.006z M367.198,40.006
		c-3.464,16.976-17.704,30.08-35.24,31.808c0.048-0.072,0.096-0.152,0.144-0.232c1.104-1.592,2.104-3.256,3.12-4.904
		c0.656-1.064,1.328-2.112,1.944-3.192c1.04-1.816,2.008-3.68,2.952-5.56c0.456-0.92,0.904-1.84,1.336-2.776
		c0.96-2.056,1.872-4.12,2.704-6.24c0.248-0.624,0.464-1.264,0.696-1.896c0.864-2.312,1.72-4.624,2.432-7.008
		C347.286,40.006,367.198,40.006,367.198,40.006z M112.814,40.006h19.912c0.712,2.384,1.568,4.696,2.432,7.008
		c0.232,0.632,0.448,1.272,0.696,1.896c0.832,2.12,1.744,4.184,2.704,6.24c0.432,0.936,0.88,1.856,1.336,2.776
		c0.944,1.88,1.904,3.736,2.952,5.56c0.616,1.08,1.288,2.128,1.944,3.192c1.024,1.648,2.024,3.312,3.12,4.904
		c0.048,0.072,0.096,0.152,0.144,0.232C130.51,70.086,116.27,56.982,112.814,40.006z M170.366,73.91
		c-5.568-5.888-10.352-12.424-14.248-19.464c-0.184-0.328-0.368-0.648-0.544-0.976c-3.912-7.272-6.912-15.04-8.84-23.128
		c-1.12-4.672-1.992-9.432-2.4-14.336h191.344c-0.408,4.904-1.28,9.672-2.4,14.336c-1.936,8.088-4.928,15.856-8.84,23.128
		c-0.176,0.328-0.36,0.656-0.544,0.976c-3.896,7.032-8.68,13.576-14.248,19.464c-17.512,18.488-42.224,30.096-69.64,30.096
		S187.878,92.398,170.366,73.91z M444.95,464.006l-29.096-58.176l3.176-1.056l8.92-2.976l31.112,62.208H444.95z M408.006,248.006
		c13.232,0,24,10.768,24,24s-10.768,24-24,24s-24-10.768-24-24S394.774,248.006,408.006,248.006z M360.006,312.006h40
		c13.232,0,24,10.768,24,24v50.24l-18.528,6.176c-0.936,0.312-1.752,0.84-2.496,1.448c-1.368,1.12-2.392,2.632-2.792,4.408
		l-14.6,65.728h-15.824l14.088-70.432c0.096-0.52,0.152-1.04,0.152-1.568v-56c0-4.416-3.576-8-8-8h-16
		c-13.312,0-25.608-6.648-32.984-17.416c2.144-1.432,4.16-3.048,6.08-4.752c0.232-0.208,0.464-0.416,0.696-0.632
		c1.864-1.712,3.656-3.512,5.28-5.464C343.198,307.054,351.03,312.006,360.006,312.006z M176.006,208.006h28.32
		c-7.632,8.504-12.32,19.696-12.32,32s4.688,23.496,12.32,32h-20.32c-4.416,0-8-3.592-8-8L176.006,208.006L176.006,208.006z
		 M208.006,240.006c0-17.648,14.352-32,32-32s32,14.352,32,32s-14.352,32-32,32S208.006,257.654,208.006,240.006z M275.686,208.006
		h28.32v56c0,4.408-3.584,8-8,8h-20.32c7.632-8.504,12.32-19.696,12.32-32S283.318,216.51,275.686,208.006z M200.006,176.006h80
		c10.432,0,19.328,6.688,22.632,16H177.374C180.678,182.694,189.574,176.006,200.006,176.006z M144.006,208.006h16v56
		c0,13.232,10.768,24,24,24h112c13.232,0,24-10.768,24-24v-56h16v56c0,2.424-0.304,4.768-0.712,7.072
		c-0.144,0.768-0.32,1.52-0.504,2.28c-0.384,1.576-0.872,3.104-1.432,4.6c-0.28,0.736-0.512,1.496-0.832,2.216
		c-0.864,1.944-1.88,3.8-3.024,5.568c-0.472,0.72-1.024,1.384-1.536,2.072c-0.856,1.144-1.752,2.256-2.728,3.296
		c-0.632,0.68-1.28,1.352-1.96,1.984c-1.12,1.048-2.32,2.016-3.552,2.936c-0.592,0.44-1.144,0.936-1.768,1.344
		c-6.312,4.176-13.84,6.632-21.952,6.632h-16c-4.424,0-8,3.584-8,8v56c0,0.608,0.072,1.208,0.2,1.8l21.744,94.2h-23.696
		l-22.488-89.944c-0.896-3.56-4.088-6.056-7.76-6.056s-6.864,2.496-7.76,6.056l-22.488,89.944h-23.696l21.744-94.2
		c0.128-0.592,0.2-1.192,0.2-1.8v-56c0-4.416-3.576-8-8-8h-16c-8.112,0-15.64-2.456-21.952-6.624
		c-0.624-0.408-1.168-0.904-1.768-1.344c-1.232-0.92-2.432-1.88-3.552-2.936c-0.68-0.64-1.328-1.304-1.96-1.984
		c-0.968-1.048-1.872-2.152-2.728-3.296c-0.512-0.688-1.072-1.352-1.536-2.072c-1.152-1.768-2.16-3.624-3.024-5.568
		c-0.32-0.72-0.552-1.48-0.832-2.216c-0.56-1.496-1.048-3.024-1.432-4.6c-0.184-0.752-0.36-1.512-0.504-2.28
		c-0.408-2.312-0.712-4.656-0.712-7.08L144.006,208.006L144.006,208.006z M140.934,299.742c1.624,1.952,3.408,3.752,5.28,5.464
		c0.232,0.216,0.456,0.424,0.696,0.632c1.928,1.712,3.936,3.32,6.08,4.752c-7.376,10.768-19.672,17.416-32.984,17.416h-16
		c-4.424,0-8,3.584-8,8v56c0,0.528,0.056,1.048,0.16,1.568l14.08,70.432H94.414l-14.6-65.728c-0.608-2.744-2.616-4.968-5.28-5.856
		l-18.528-6.184v-50.232c0-13.232,10.768-24,24-24h40C128.982,312.006,136.814,307.054,140.934,299.742z M72.006,248.006
		c13.232,0,24,10.768,24,24s-10.768,24-24,24s-24-10.768-24-24S58.774,248.006,72.006,248.006z M52.062,401.798l8.92,2.976
		l3.176,1.056l-29.096,58.176H20.95L52.062,401.798z"/>
	<path style="fill:#31324D;" d="M280.174,57.79c-11.336,9.168-25.6,14.216-40.168,14.216v16c18.216,0,36.056-6.312,50.232-17.776
		L280.174,57.79z"/>
	<path style="fill:#31324D;" d="M311.662,43.566l-14.328-7.128c-2.552,5.136-5.808,9.92-9.664,14.216l11.904,10.688
		C304.398,55.982,308.462,49.998,311.662,43.566z"/>
</g>
<g>
</g>
<g>
</g>
<g>
</g>
<g>
</g>
<g>
</g>
<g>
</g>
<g>
</g>
<g>
</g>
<g>
</g>
<g>
</g>
<g>
</g>
<g>
</g>
<g>
</g>
<g>
</g>
<g>
</g>
</svg>
