<?xml version="1.0" encoding="iso-8859-1"?>
<!-- Generator: Adobe Illustrator 19.0.0, SVG Export Plug-In . SVG Version: 6.00 Build 0)  -->
<svg version="1.1" id="Capa_1" xmlns="http://www.w3.org/2000/svg" xmlns:xlink="http://www.w3.org/1999/xlink" x="0px" y="0px"
	 viewBox="0 0 512 512" style="enable-background:new 0 0 512 512;" xml:space="preserve">
<circle style="fill:#FFDCCE;" cx="184.861" cy="98.693" r="91.178"/>
<path style="fill:#FFCBB6;" d="M204.9,173.84c-50.356,0-91.178-40.822-91.178-91.178c0-24.192,9.425-46.181,24.8-62.503
	c-26.837,15.87-44.84,45.097-44.84,78.534c0,50.356,40.822,91.178,91.178,91.178c26.164,0,49.75-11.024,66.378-28.675
	C237.659,169.226,221.819,173.84,204.9,173.84z"/>
<path style="fill:#95A1AC;" d="M184.861,7.515c-0.34,0-0.677,0.009-1.017,0.013l0.015-0.013H55.609c0,0,38.074,81.472,38.074,91.178
	c0,28.734,13.296,54.359,34.067,71.072V79.656c13.512,3.942,32.778,8.016,56.11,8.016c14.076,0,33.712-1.483,56.11-8.016
	c0,30.559,0,61.118,0,91.677c21.916-16.653,36.07-42.991,36.07-72.64C276.039,48.336,235.217,7.515,184.861,7.515z"/>
<path style="fill:#808E9B;" d="M153.258,7.515h-97.65c0,0,38.074,81.472,38.074,91.178c0,28.734,13.296,54.359,34.067,71.072
	v-38.498c-8.882-14.069-14.027-30.735-14.027-48.604C113.722,51.478,129.38,23.956,153.258,7.515z"/>
<path style="fill:#95A1AC;" d="M239.969,171.333c4.029-3.062,7.793-6.453,11.258-10.13c-3.601,2.129-7.36,4.019-11.258,5.644
	C239.969,168.342,239.969,169.837,239.969,171.333z"/>
<path style="fill:#F4F6F7;" d="M312.11,504.485H55.609V247.984c0-17.708,14.355-32.063,32.063-32.063h192.376
	c17.708,0,32.063,14.355,32.063,32.063V504.485z"/>
<polygon style="fill:#FE9C74;" points="199.89,256 167.828,256 159.812,215.922 207.906,215.922 "/>
<rect x="167.828" y="256" style="fill:#FD8E61;" width="32.063" height="128.25"/>
<path style="fill:#55697A;" d="M312.11,504.485H55.609V247.984c0-17.708,14.355-32.063,32.063-32.063h24.047l72.141,144.282
	L256,215.922h24.047c17.708,0,32.063,14.355,32.063,32.063V504.485z"/>
<path style="fill:#40566A;" d="M112.171,216.827l-0.453-0.906H87.671c-17.708,0-32.063,14.355-32.063,32.063v256.501h32.063V247.984
	C87.671,232.883,98.115,220.227,112.171,216.827z"/>
<path style="fill:#EAECEE;" d="M472.423,111.718H272.031c-17.708,0-32.063,14.355-32.063,32.063v176.344
	c0,17.708,14.355,32.063,32.063,32.063h72.141v40.078l40.078-40.078h88.172c17.708,0,32.063-14.355,32.063-32.063V143.781
	C504.485,126.073,490.13,111.718,472.423,111.718z"/>
<path style="fill:#D5D9DE;" d="M496.47,328.141H296.078c-17.708,0-32.063-14.355-32.063-32.063V119.734
	c0-2.475,0.29-4.882,0.821-7.195c-14.242,3.267-24.868,16.009-24.868,31.242v176.344c0,17.708,14.355,32.063,32.063,32.063h72.141
	v40.078l40.078-40.078h88.172c15.233,0,27.975-10.626,31.242-24.868C501.351,327.851,498.944,328.141,496.47,328.141z"/>
<circle style="fill:#FDE6A6;" cx="372.227" cy="233.957" r="86.168"/>
<circle style="fill:#FDDD88;" cx="372.227" cy="233.957" r="62.121"/>
<rect x="7.515" y="416.313" style="fill:#FE9C74;" width="496.971" height="32.063"/>
<rect x="23.546" y="448.376" style="fill:#FD8E61;" width="464.908" height="56.11"/>
<rect x="23.546" y="448.376" style="fill:#FD7239;" width="464.908" height="24.047"/>
<circle cx="215.421" cy="119.233" r="7.515"/>
<circle cx="152.297" cy="119.233" r="7.515"/>
<circle cx="183.859" cy="392.266" r="7.515"/>
<path d="M341.297,399.209c2.779,1.152,6.063,0.497,8.19-1.628l37.876-37.878h85.06c21.823,0,39.577-17.755,39.577-39.577V143.781
	c0-21.823-17.755-39.577-39.577-39.577H283.397c0.014-0.251,0.028-0.504,0.04-0.756c0.008-0.164,0.012-0.328,0.019-0.491
	c0.061-1.422,0.098-2.846,0.098-4.263C283.554,44.273,239.28,0,184.861,0c-0.228,0-0.455,0.003-0.682,0.007
	C184.073,0.002,183.965,0,183.859,0H55.609c-5.396,0-9.098,5.795-6.808,10.697c17.776,38.035,36.571,81.321,37.37,88.164
	c0,0.001,0,0.002,0,0.003c0.093,54.341,44.329,98.521,98.691,98.521c16.832,0,33.08-4.194,47.593-12.211v23.232H87.671
	c-21.823,0-39.577,17.755-39.577,39.577v160.814H7.515c-4.151,0-7.515,3.364-7.515,7.515v32.063c0,4.151,3.364,7.515,7.515,7.515
	h8.517v48.595c0,4.151,3.364,7.515,7.515,7.515h464.908c4.151,0,7.515-3.364,7.515-7.515V455.89h8.517
	c4.151,0,7.515-3.364,7.515-7.515v-32.063c0-4.151-3.364-7.515-7.515-7.515h-55.108c-4.151,0-7.515,3.364-7.515,7.515
	s3.364,7.515,7.515,7.515h47.593v17.033H15.029v-17.033h397.777c4.151,0,7.515-3.364,7.515-7.515s-3.364-7.515-7.515-7.515h-93.182
	v-49.096h17.033v32.564C336.658,395.305,338.488,398.046,341.297,399.209z M480.939,455.89v41.08H31.061v-41.08H480.939z
	 M101.198,98.693c0-2.673,0-7.65-19.676-52.261c-5.223-11.843-10.484-23.402-14.16-31.402h116.043
	c0.175,0.011,0.351,0.013,0.526,0.013l0.931-0.013c46.132,0,83.663,37.531,83.663,83.663c0,1.368-0.038,2.742-0.104,4.113
	c-0.023,0.48-0.067,0.955-0.099,1.433c-0.003,0.048-0.008,0.096-0.011,0.145c-7.824,0.733-14.989,3.756-20.827,8.387V79.802
	c0.119-4.994-4.852-8.743-9.619-7.36c-17.553,5.119-35.723,7.715-54.005,7.715c-18.284,0-36.454-2.596-54.005-7.715
	c-4.766-1.383-9.737,2.376-9.619,7.36v71.963C108.347,137.312,101.198,118.822,101.198,98.693z M135.161,165.945
	c0.062-0.389,0.103-0.785,0.103-1.19V89.421c15.905,3.823,32.207,5.765,48.595,5.765c16.387,0,32.689-1.942,48.595-5.766v54.361
	v23.712c-14.016,9.719-30.443,14.863-47.593,14.863C166.263,182.356,149.068,176.249,135.161,165.945z M232.454,247.624
	c-0.775,0.644-1.433,1.453-1.912,2.411l-23.137,46.273v-39.563l6.662-33.308h18.387V247.624z M153.651,223.436l6.662,33.308v39.563
	l-36.436-72.871H153.651z M175.342,325.636v-62.121h17.033v62.622c0,0.07,0.009,0.139,0.01,0.208l-8.527,17.054l-8.55-17.1
	C175.328,326.081,175.342,325.86,175.342,325.636z M198.74,223.436l-5.01,25.049h-19.742l-5.01-25.049H198.74z M304.595,408.798
	H63.123V247.984c0-13.536,11.012-24.548,24.548-24.548h19.403l70.064,140.128c2.716,5.43,10.726,5.431,13.442,0l41.874-83.747
	v40.308c0,21.823,17.755,39.577,39.577,39.577h32.564V408.798z M272.031,344.673c-13.536,0-24.548-11.012-24.548-24.548V143.781
	c0-13.536,11.012-24.548,24.548-24.548h200.391c13.536,0,24.548,11.012,24.548,24.548v176.344c0,13.536-11.012,24.548-24.548,24.548
	H384.25c-1.993,0-3.904,0.792-5.314,2.2l-27.249,27.251v-21.937c0-4.151-3.364-7.515-7.515-7.515H272.031z"/>
<path d="M465.91,233.957c0-51.657-42.026-93.683-93.683-93.683s-93.683,42.026-93.683,93.683s42.026,93.683,93.683,93.683
	S465.91,285.614,465.91,233.957z M293.573,233.957c0-43.37,35.284-78.654,78.654-78.654s78.654,35.284,78.654,78.654
	s-35.284,78.654-78.654,78.654S293.573,277.327,293.573,233.957z"/>
<path d="M379.742,286.059v-8.591c11.857-2.299,20.841-12.756,20.841-25.275c0-14.199-11.552-25.75-25.75-25.75h-5.21
	c-5.912,0-10.721-4.809-10.721-10.721c0-5.912,4.809-10.721,10.721-10.721h7.815c4.475,0,8.116,3.641,8.116,8.117v5.21
	c0,4.151,3.364,7.515,7.515,7.515c4.151,0,7.515-3.364,7.515-7.515v-5.21c0-11.984-9.156-21.87-20.841-23.03v-8.232
	c0-4.151-3.364-7.515-7.515-7.515c-4.151,0-7.515,3.364-7.515,7.515v8.591c-11.857,2.299-20.841,12.756-20.841,25.275
	c0,14.199,11.552,25.75,25.75,25.75h5.209c5.912,0,10.721,4.809,10.721,10.721c0,5.912-4.809,10.721-10.721,10.721h-7.815
	c-4.475,0-8.116-3.641-8.116-8.117c0-4.151-3.364-7.515-7.515-7.515c-4.151,0-7.515,3.364-7.515,7.515
	c0,11.984,9.156,21.87,20.841,23.03v8.231c0,4.151,3.364,7.515,7.515,7.515C376.377,293.572,379.742,290.21,379.742,286.059z"/>
<g>
</g>
<g>
</g>
<g>
</g>
<g>
</g>
<g>
</g>
<g>
</g>
<g>
</g>
<g>
</g>
<g>
</g>
<g>
</g>
<g>
</g>
<g>
</g>
<g>
</g>
<g>
</g>
<g>
</g>
</svg>
